HIERARCHY
ROOT Hips
{
    OFFSET 0.0 0.0 0.0
    CHANNELS 6 Xposition Yposition Zposition Zrotation Xrotation Yrotation
    JOINT Spine
    {
        OFFSET 0.0 5.0 0.0
        CHANNELS 3 Zrotation Xrotation Yrotation
        JOINT Chest
        {
            OFFSET 0.0 5.0 0.0
            CHANNELS 3 Zrotation Xrotation Yrotation
            JOINT Neck
            {
                OFFSET 0.0 8.0 0.0
                CHANNELS 3 Zrotation Xrotation Yrotation
                JOINT Head
                {
                    OFFSET 0.0 5.0 0.0
                    CHANNELS 3 Zrotation Xrotation Yrotation
                    End Site
                    {
                        OFFSET 0.0 3.0 0.0
                    }
                }
            }
            JOINT LeftShoulder
            {
                OFFSET -5.0 0.0 0.0
                CHANNELS 3 Zrotation Xrotation Yrotation
                JOINT LeftArm
                {
                    OFFSET 0.0 -10.0 0.0
                    CHANNELS 3 Zrotation Xrotation Yrotation
                    JOINT LeftForeArm
                    {
                        OFFSET 0.0 -10.0 0.0
                        CHANNELS 3 Zrotation Xrotation Yrotation
                        End Site
                        {
                            OFFSET 0.0 -3.0 0.0
                        }
                    }
                }
            }
            JOINT RightShoulder
            {
                OFFSET 5.0 0.0 0.0
                CHANNELS 3 Zrotation Xrotation Yrotation
                JOINT RightArm
                {
                    OFFSET 0.0 -10.0 0.0
                    CHANNELS 3 Zrotation Xrotation Yrotation
                    JOINT RightForeArm
                    {
                        OFFSET 0.0 -10.0 0.0
                        CHANNELS 3 Zrotation Xrotation Yrotation
                        End Site
                        {
                            OFFSET 0.0 -3.0 0.0
                        }
                    }
                }
            }
        }
    }
    JOINT LeftHip
    {
        OFFSET -2.0 0.0 0.0
        CHANNELS 3 Zrotation Xrotation Yrotation
        JOINT LeftKnee
        {
            OFFSET 0.0 -10.0 0.0
            CHANNELS 3 Zrotation Xrotation Yrotation
            JOINT LeftAnkle
            {
                OFFSET 0.0 -10.0 0.0
                CHANNELS 3 Zrotation Xrotation Yrotation
                End Site
                {
                    OFFSET 0.0 -3.0 0.0
                }
            }
        }
    }
    JOINT RightHip
    {
        OFFSET 2.0 0.0 0.0
        CHANNELS 3 Zrotation Xrotation Yrotation
        JOINT RightKnee
        {
            OFFSET 0.0 -10.0 0.0
            CHANNELS 3 Zrotation Xrotation Yrotation
            JOINT RightAnkle
            {
                OFFSET 0.0 -10.0 0.0
                CHANNELS 3 Zrotation Xrotation Yrotation
                End Site
                {
                    OFFSET 0.0 -3.0 0.0
                }
            }
        }
    }
}

MOTION
Frames: 13
Frame Time: 0.033333
10.000000 0.000000 2.938926 0.000000 0.000000 0.000000 -0.000000 -0.000000 0.000000 0.596008 0.224157 -0.265968 0.778837 0.295520 -0.338785 0.564642 0.217483 -0.234998 -0.000000 -0.000000 0.000000 8.940120 3.362358 -3.989523 23.365101 8.865606 -10.163565 -0.000000 -15.000000 -0.000000 8.940120 -22.247349 3.989523 23.365101 -28.660095 10.163565 -0.000000 -0.000000 0.000000 7.946773 2.988763 -3.546242 11.682550 4.432803 -5.081782 -0.000000 -10.000000 -0.000000 7.946773 -19.775422 3.546242 11.682550 -14.330047 5.081782
9.995066 0.000000 2.862161 0.000000 0.000000 0.000000 0.626666 0.235271 -0.281072 0.959813 0.362740 -0.422368 1.003574 0.384114 -0.425576 0.663632 0.258887 -0.265779 3.759997 1.411625 -1.686432 14.397195 5.441096 -6.335522 30.107233 11.523413 -12.767284 3.759997 -14.933429 1.686432 14.397195 -21.832189 6.335522 30.107233 -27.698573 12.767284 2.506665 0.941083 -1.124288 12.797507 4.836530 -5.631575 15.053616 5.761707 -6.383642 2.506665 -9.955620 1.124288 12.797507 -19.406390 5.631575 15.053616 -13.849286 6.383642
9.980267 0.000000 2.784378 0.000000 0.000000 0.000000 1.243449 0.468453 -0.552187 1.308481 0.498103 -0.563806 1.212485 0.469298 -0.497291 0.752156 0.297994 -0.287145 7.460697 2.810720 -3.313121 19.627219 7.471539 -8.457083 36.374556 14.078938 -14.918717 7.460697 -14.734309 3.313121 19.627219 -21.223244 8.457083 36.374556 -26.491197 14.918717 4.973798 1.873813 -2.208747 17.446417 6.641368 -7.517407 18.187278 7.039469 -7.459358 4.973798 -9.822873 2.208747 17.446417 -18.865106 7.517407 18.187278 -13.245598 7.459358
9.955620 0.000000 2.705606 0.000000 0.000000 0.000000 1.840623 0.697478 -0.803740 1.636514 0.629044 -0.685270 1.402274 0.550317 -0.551388 0.828818 0.334456 -0.298338 11.043737 4.184867 -4.822441 24.547709 9.435664 -10.279047 42.068231 16.509497 -16.541646 11.043737 -14.404405 4.822441 24.547709 -20.425921 10.279047 42.068231 -25.048683 16.541646 7.362491 2.789911 -3.214961 21.820186 8.387257 -9.136930 21.034116 8.254749 -8.270823 7.362491 -9.602937 3.214961 21.820186 -18.156374 9.136930 21.034116 -12.524341 8.270823
9.921147 0.000000 2.625873 0.000000 0.000000 0.000000 2.408768 0.920311 -1.026821 1.938738 0.754402 -0.782458 1.569949 0.626451 -0.585953 0.892408 0.367949 -0.298963 14.452610 5.521868 -6.160924 29.081067 11.316037 -11.736870 47.098465 18.793517 -17.578580 14.452610 -13.946647 6.160924 29.081067 -19.447296 11.736870 47.098465 -23.383835 17.578580 9.635073 3.681246 -4.107283 25.849837 10.058699 -10.432773 23.549232 9.396758 -8.789290 9.635073 -9.297765 4.107283 25.849837 -17.286485 10.432773 23.549232 -11.691917 8.789290
9.876883 0.000000 2.545207 0.000000 0.000000 0.000000 2.938926 1.134976 -1.213525 2.210387 0.873065 -0.851927 1.712864 0.697024 -0.599759 0.941925 0.398176 -0.288996 17.633558 6.809857 -7.281153 33.155800 13.095968 -12.778909 51.385928 20.910724 -17.992783 17.633558 -13.365098 7.281153 33.155800 -18.296055 12.778909 51.385928 -21.511430 17.992783 11.755705 4.539905 -4.854102 29.471822 11.640861 -11.359030 25.692964 10.455362 -8.996392 11.755705 -8.910065 4.854102 29.471822 -16.263160 11.359030 25.692964 -10.755715 8.996392
9.822873 0.000000 2.463637 0.000000 0.000000 0.000000 3.422736 1.339567 -1.357241 2.447176 0.983977 -0.891217 1.828767 0.761411 -0.592319 0.976588 0.424869 -0.268792 20.536413 8.037402 -8.143443 36.707645 14.759659 -13.368249 54.863004 22.842326 -17.769583 20.536413 -12.664919 8.143443 36.707645 -16.982417 13.368249 54.863004 -19.448089 17.769583 13.690942 5.358268 -5.428962 32.629018 13.119697 -11.882888 27.431502 11.421163 -8.884792 13.690942 -8.443279 5.428962 32.629018 -15.095482 11.882888 27.431502 -9.724044 8.884792
9.759168 0.000000 2.381191 0.000000 0.000000 0.000000 3.852566 1.532268 -1.452875 2.645373 1.086156 -0.898934 1.915829 0.819039 -0.563896 0.995849 0.447790 -0.239066 23.115397 9.193606 -8.717248 39.680589 16.292341 -13.484012 57.474857 24.571177 -16.916887 23.115397 -11.852325 8.717248 39.680589 -15.518042 13.484012 57.474857 -17.212125 16.916887 15.410265 6.129071 -5.811499 35.271635 14.482081 -11.985789 28.737429 12.285589 -8.458443 15.410265 -7.901550 5.811499 35.271635 -13.793815 11.985789 28.737429 -8.606062 8.458443
9.685832 0.000000 2.297899 0.000000 0.000000 0.000000 4.221640 1.711368 -1.497040 2.801850 1.178694 -0.874806 1.972677 0.869398 -0.515497 0.999404 0.466737 -0.200871 25.329838 10.268207 -8.982241 42.027747 17.680412 -13.122097 59.180298 26.081934 -15.464902 25.329838 -10.934529 8.982241 42.027747 -13.915927 13.122097 59.180298 -14.823385 15.464902 16.886559 6.845471 -5.988160 37.357997 15.715922 -11.664087 29.590149 13.040967 -7.732451 16.886559 -7.289686 5.988160 37.357997 -12.369713 11.664087 29.590149 -7.411692 7.732451
9.602937 0.000000 2.213791 0.000000 0.000000 0.000000 4.524135 1.875278 -1.488172 2.914140 1.260770 -0.819688 1.998414 0.912039 -0.448835 0.987199 0.481542 -0.155559 27.144812 11.251666 -8.929032 43.712102 18.911550 -12.295326 59.952430 27.361185 -13.465064 27.144812 -9.919678 8.929032 43.712102 -12.190294 12.295326 59.952430 -12.303071 13.465064 18.096541 7.501111 -5.952688 38.855202 16.810267 -10.929178 29.976215 13.680592 -6.732532 18.096541 -6.613119 5.952688 38.855202 -10.835817 10.929178 29.976215 -6.151536 6.732532
9.510565 0.000000 2.128896 0.000000 0.000000 0.000000 4.755283 2.022542 -1.426585 2.980473 1.331655 -0.735532 1.992636 0.946586 -0.366274 0.959425 0.492072 -0.104737 28.531695 12.135255 -8.559509 44.707091 19.974828 -11.032986 59.779077 28.397576 -10.988221 28.531695 -8.816779 8.559509 44.707091 -10.356459 11.032986 59.779077 -9.673555 10.988221 19.021130 8.090170 -5.706339 39.739636 17.755403 -9.807099 29.889538 14.198788 -5.494110 19.021130 -5.877853 5.706339 39.739636 -9.205741 9.807099 29.889538 -4.836777 5.494110
9.408808 0.000000 2.043245 0.000000 0.000000 0.000000 4.911436 2.151855 -1.314460 2.999801 1.390721 -0.625320 1.955432 0.972730 -0.270737 0.916520 0.498234 -0.050205 29.468618 12.911130 -7.886760 44.997022 20.860808 -9.379797 58.662972 29.181909 -8.122113 29.468618 -7.635621 7.886760 44.997022 -8.430699 9.379797 58.662972 -6.958175 8.122113 19.645745 8.607420 -5.257840 39.997353 18.542940 -8.337598 29.331486 14.590954 -4.061057 19.645745 -5.090414 5.257840 39.997353 -7.493955 8.337598 29.331486 -3.479088 4.061057
9.297765 0.000000 1.956868 0.000000 0.000000 0.000000 4.990134 2.262068 -1.155770 2.971822 1.437442 -0.492955 1.887391 0.990241 -0.165609 0.859161 0.499974 0.006106 29.940802 13.572406 -6.934619 44.577324 21.561626 -7.394325 56.621716 29.707221 -4.968277 29.940802 -6.386689 6.934619 44.577324 -6.430108 7.394325 56.621716 -4.181034 4.968277 19.960535 9.048271 -4.623079 39.624288 19.165890 -6.572733 28.310858 14.853610 -2.484138 19.960535 -4.257793 4.623079 39.624288 -5.715652 6.572733 28.310858 -2.090517 2.484138
